<svg width="16" height="18" viewBox="0 0 16 18" fill="none" xmlns="http://www.w3.org/2000/svg">
<path d="M13.4076 1.95508H14.4056V2.45508H13.4076V1.95508Z" fill="#66757F"/>
<path d="M0 5.95508V15.9551C0 17.0596 0.8955 17.9551 2 17.9551H14C15.1045 17.9551 16 17.0596 16 15.9551V5.95508H0Z" fill="#CCD6DD"/>
<path d="M14 1.95508H2C0.8955 1.95508 0 2.85058 0 3.95508V6.45508H16V3.95508C16 2.85058 15.1045 1.95508 14 1.95508Z" fill="#DD2E44"/>
<path d="M3.41805 4.32079C3.06705 4.32079 2.78255 3.98779 2.78255 3.57629C2.78255 3.16529 3.06705 2.83179 3.41805 2.83179C3.76855 2.83179 4.05305 3.16529 4.05305 3.57629C4.05305 3.98729 3.76855 4.32079 3.41805 4.32079ZM6.41805 4.32079C6.06705 4.32079 5.78255 3.98779 5.78255 3.57629C5.78255 3.16529 6.06705 2.83179 6.41805 2.83179C6.76855 2.83179 7.05305 3.16529 7.05305 3.57629C7.05305 3.98729 6.76855 4.32079 6.41805 4.32079ZM9.41805 4.32079C9.06705 4.32079 8.78255 3.98779 8.78255 3.57629C8.78255 3.16529 9.06705 2.83179 9.41805 2.83179C9.76855 2.83179 10.0535 3.16529 10.0535 3.57629C10.053 3.98729 9.76855 4.32079 9.41805 4.32079ZM12.418 4.32079C12.067 4.32079 11.7825 3.98779 11.7825 3.57629C11.7825 3.16529 12.067 2.83179 12.418 2.83179C12.7685 2.83179 13.0535 3.16529 13.0535 3.57629C13.053 3.98729 12.7685 4.32079 12.418 4.32079Z" fill="#292F33"/>
<path d="M12.6575 0.0446777C12.019 0.0446777 11.466 0.445678 11.1605 1.02968C10.8575 0.458178 10.302 0.0446777 9.65755 0.0446777C9.01905 0.0446777 8.46605 0.445678 8.16055 1.02968C7.85755 0.458178 7.30205 0.0446777 6.65755 0.0446777C6.01905 0.0446777 5.46605 0.445678 5.16055 1.02968C4.85755 0.458178 4.30205 0.0446777 3.65755 0.0446777C2.69055 0.0446777 1.90755 0.954178 1.90755 2.04718C1.90755 2.97418 2.43005 3.73268 3.19205 4.01018C3.57155 4.14768 3.80405 3.78668 3.77155 3.49718C3.74405 3.25718 3.58455 3.10068 3.40705 2.98818C3.16455 2.83468 2.90705 2.48418 2.90705 2.04968C2.90705 1.49768 3.24255 1.00218 3.65705 1.00218C4.07155 1.00218 4.40705 1.45468 4.40705 1.95468H4.91505C4.91355 1.98568 4.90705 2.01518 4.90705 2.04668C4.90705 2.97368 5.42955 3.73218 6.19155 4.00968C6.57105 4.14718 6.80355 3.78618 6.77105 3.49668C6.74355 3.25718 6.58405 3.10068 6.40655 2.98818C6.16405 2.83468 5.90655 2.48418 5.90655 2.04968C5.90655 1.49768 6.24205 1.00218 6.65655 1.00218C7.07105 1.00218 7.40755 1.45518 7.40755 1.95518H7.91555C7.91405 1.98618 7.90755 2.01568 7.90755 2.04718C7.90755 2.97418 8.43005 3.73268 9.19205 4.01018C9.57155 4.14768 9.80405 3.78668 9.77155 3.49718C9.74405 3.25768 9.58455 3.10118 9.40705 2.98868C9.16455 2.83518 8.90705 2.48468 8.90705 2.05018C8.90705 1.49818 9.24255 1.00268 9.65705 1.00268C10.0715 1.00268 10.4075 1.45518 10.4075 1.95518H10.9155C10.914 1.98618 10.9075 2.01568 10.9075 2.04718C10.9075 2.97418 11.43 3.73268 12.192 4.01018C12.5715 4.14768 12.804 3.78668 12.7715 3.49718C12.744 3.25768 12.5845 3.10118 12.407 2.98868C12.1645 2.83518 11.907 2.48468 11.907 2.05018C11.907 1.49818 12.2425 1.00268 12.657 1.00268C13.0715 1.00268 13.4075 1.45518 13.4075 1.95518H14.4055C14.395 0.955178 13.6175 0.0446777 12.6575 0.0446777Z" fill="#66757F"/>
<path d="M4.5 7.45508H6.5V9.45508H4.5V7.45508ZM7 7.45508H9V9.45508H7V7.45508ZM9.5 7.45508H11.5V9.45508H9.5V7.45508ZM12 7.45508H14V9.45508H12V7.45508ZM2 9.95508H4V11.9551H2V9.95508ZM4.5 9.95508H6.5V11.9551H4.5V9.95508ZM7 9.95508H9V11.9551H7V9.95508ZM9.5 9.95508H11.5V11.9551H9.5V9.95508ZM12 9.95508H14V11.9551H12V9.95508ZM2 12.4551H4V14.4551H2V12.4551ZM4.5 12.4551H6.5V14.4551H4.5V12.4551ZM7 12.4551H9V14.4551H7V12.4551ZM9.5 12.4551H11.5V14.4551H9.5V12.4551ZM12 12.4551H14V14.4551H12V12.4551ZM2 14.9551H4V16.9551H2V14.9551ZM4.5 14.9551H6.5V16.9551H4.5V14.9551ZM7 14.9551H9V16.9551H7V14.9551Z" fill="white"/>
</svg>
