<svg width="321" height="20" viewBox="0 0 321 20" fill="none" xmlns="http://www.w3.org/2000/svg">
<line x1="0.5" y1="9.5" x2="140.5" y2="9.50001" stroke="#EAEBEC"/>
<path d="M160.324 9.90909C160.324 10.983 160.13 11.911 159.742 12.6932C159.354 13.4754 158.822 14.0786 158.146 14.5028C157.47 14.9271 156.698 15.1392 155.83 15.1392C154.961 15.1392 154.189 14.9271 153.513 14.5028C152.837 14.0786 152.305 13.4754 151.917 12.6932C151.529 11.911 151.335 10.983 151.335 9.90909C151.335 8.83523 151.529 7.9072 151.917 7.125C152.305 6.3428 152.837 5.73958 153.513 5.31534C154.189 4.8911 154.961 4.67898 155.83 4.67898C156.698 4.67898 157.47 4.8911 158.146 5.31534C158.822 5.73958 159.354 6.3428 159.742 7.125C160.13 7.9072 160.324 8.83523 160.324 9.90909ZM159.131 9.90909C159.131 9.02746 158.983 8.28338 158.688 7.67685C158.397 7.07031 158 6.61127 157.5 6.29972C157.003 5.98816 156.446 5.83239 155.83 5.83239C155.213 5.83239 154.655 5.98816 154.154 6.29972C153.657 6.61127 153.261 7.07031 152.966 7.67685C152.674 8.28338 152.528 9.02746 152.528 9.90909C152.528 10.7907 152.674 11.5348 152.966 12.1413C153.261 12.7479 153.657 13.2069 154.154 13.5185C154.655 13.83 155.213 13.9858 155.83 13.9858C156.446 13.9858 157.003 13.83 157.5 13.5185C158 13.2069 158.397 12.7479 158.688 12.1413C158.983 11.5348 159.131 10.7907 159.131 9.90909ZM162.397 15V4.81818H165.837C166.633 4.81818 167.286 4.95407 167.796 5.22585C168.307 5.49432 168.684 5.86387 168.93 6.33452C169.175 6.80516 169.298 7.34044 169.298 7.94034C169.298 8.54025 169.175 9.07221 168.93 9.53622C168.684 10.0002 168.308 10.3648 167.801 10.63C167.294 10.8918 166.646 11.0227 165.857 11.0227H163.073V9.90909H165.817C166.361 9.90909 166.799 9.82955 167.13 9.67045C167.465 9.51136 167.707 9.28598 167.856 8.99432C168.008 8.69934 168.085 8.34801 168.085 7.94034C168.085 7.53267 168.008 7.17637 167.856 6.87145C167.703 6.56652 167.46 6.3312 167.125 6.16548C166.79 5.99645 166.348 5.91193 165.798 5.91193H163.63V15H162.397ZM167.19 10.4261L169.695 15H168.263L165.798 10.4261H167.19Z" fill="#98A2B3"/>
<line x1="180.5" y1="9.5" x2="320.5" y2="9.50001" stroke="#EAEBEC"/>
</svg>
