<svg width="32" height="32" viewBox="0 0 32 32" fill="none" xmlns="http://www.w3.org/2000/svg">
<g clip-path="url(#clip0_251_25164)">
<path fill-rule="evenodd" clip-rule="evenodd" d="M21.022 7.00306C22.563 7.01706 23.978 8.33807 24.003 9.96507C24.025 12.3171 24.01 14.6681 24.003 17.0201C23.989 18.5631 22.662 19.9751 21.041 20.0011C15.69 20.0511 10.339 20.0171 4.987 20.0011C3.446 19.9861 2.032 18.6661 2.007 17.0381C1.985 14.6871 1.999 12.3351 2.006 9.98407C2.021 8.44407 3.347 7.02806 4.969 7.00306C10.32 6.95306 15.671 6.98606 21.022 7.00306ZM4.005 16.1831C4.006 16.4551 4.006 16.7271 4.006 17.0001C4.006 17.5171 4.457 17.9891 4.987 18.0011C5.271 18.0051 5.55501 18.0091 5.839 18.0131C5.83201 17.9931 5.825 17.9731 5.818 17.9531C5.512 17.1351 4.828 16.4841 4.005 16.1831ZM22.013 16.1831C21.19 16.4901 20.503 17.1631 20.188 18.0021C20.46 18.0011 20.731 18.0011 21.002 18.0011C21.52 18.0011 21.992 17.5501 22.003 17.0201C22.008 16.7411 22.011 16.4621 22.013 16.1831ZM13.027 10.0021C14.646 10.0181 16.162 11.2741 16.45 12.8841C16.837 15.0481 14.817 17.3971 12.365 16.9431C10.945 16.6791 9.753 15.4471 9.542 14.0121C9.258 12.0741 10.837 10.0501 12.937 10.0031C12.967 10.0021 12.997 10.0021 13.027 10.0021ZM5.824 9.00206C5.552 9.00206 5.28 9.00206 5.008 9.00206C4.491 9.00406 4.018 9.45207 4.006 9.98407C4.002 10.2671 3.999 10.5511 3.996 10.8341C4.016 10.8281 4.035 10.8211 4.054 10.8141C4.872 10.5091 5.523 9.82406 5.824 9.00206ZM20.185 8.99107C20.493 9.81407 21.165 10.5021 22.005 10.8171C22.004 10.5461 22.004 10.2751 22.004 10.0041C22.004 9.48607 21.553 9.01406 21.022 9.00306C20.743 8.99806 20.464 8.99407 20.185 8.99107Z" fill="#B5179E"/>
<path d="M26.1379 10.7967C26.6161 10.8831 26.981 11.2972 27.0033 11.7874C27.0033 14.0853 27.0107 16.3832 27.0033 18.6801C26.9819 20.9232 25.061 22.9927 22.6572 23.0002H5.57765C4.6947 22.9602 4.2082 21.653 5.06515 21.1424C5.20627 21.0579 5.28519 21.0133 5.57765 21.0003C11.2801 21.0003 16.9835 21.0542 22.686 21.0003C23.8995 20.9808 24.9997 19.9159 25.0034 18.6513V11.7874C25.0294 11.2062 25.5419 10.7429 26.1379 10.7967Z" fill="#B5179E"/>
<path d="M29.1369 13.7967C29.6151 13.8831 29.98 14.2972 30.0022 14.7874C30.0022 16.6944 30.0078 18.6023 30.0022 20.5094C29.9753 23.3467 27.5456 25.9909 24.479 26.0002H8.57664C7.89423 25.9695 7.39009 25.2323 7.65748 24.6075C7.78653 24.3039 8.07435 24.0755 8.39838 24.0161C8.47636 24.0022 8.49679 24.004 8.57664 24.0003C13.8845 24.0003 19.1915 24.017 24.4994 24.0003C26.3182 23.9836 27.9968 22.4136 28.0024 20.4741V14.7874C28.0284 14.2062 28.5409 13.7429 29.1369 13.7967Z" fill="#B5179E"/>
<path fill-rule="evenodd" clip-rule="evenodd" d="M12.9955 12.0029C12.0115 12.0119 11.2015 13.1709 11.6415 14.1279C12.0325 14.9789 13.3135 15.2649 14.0265 14.6009C14.8555 13.8299 14.4495 12.0439 13.0445 12.0039C13.0285 12.0029 13.0125 12.0029 12.9955 12.0029Z" fill="#B5179E"/>
</g>
<defs>
<clipPath id="clip0_251_25164">
<rect width="32" height="32" fill="white"/>
</clipPath>
</defs>
</svg>
