<svg width="91" height="32" viewBox="0 0 91 32" fill="none" xmlns="http://www.w3.org/2000/svg">
<path d="M10.958 31.6C9.4513 31.6 8.14464 31.3533 7.03797 30.86C5.9313 30.3667 4.97797 29.7067 4.17797 28.88L0.49797 31.4H0.33797V22H0.51797C0.904636 23.1733 1.37797 24.32 1.93797 25.44C2.49797 26.56 3.18464 27.5733 3.99797 28.48C4.8113 29.3733 5.7713 30.0867 6.87797 30.62C7.99797 31.14 9.29797 31.4 10.778 31.4C12.058 31.4 13.158 31.1467 14.078 30.64C14.998 30.12 15.7046 29.4133 16.198 28.52C16.6913 27.6133 16.938 26.5667 16.938 25.38C16.938 24.3 16.6446 23.3933 16.058 22.66C15.4713 21.9267 14.698 21.2933 13.738 20.76C12.778 20.2267 11.718 19.72 10.558 19.24C9.4113 18.76 8.25797 18.2467 7.09797 17.7C5.9513 17.14 4.89797 16.4667 3.93797 15.68C2.9913 14.8933 2.22464 13.9333 1.63797 12.8C1.0513 11.6533 0.75797 10.2533 0.75797 8.6C0.75797 6.93333 1.1713 5.50667 1.99797 4.32C2.83797 3.12 3.9313 2.2 5.27797 1.56C6.62464 0.919998 8.07797 0.599998 9.63797 0.599998C10.838 0.599998 11.938 0.793332 12.938 1.18C13.9513 1.56667 14.8513 2.14667 15.638 2.92L19.218 0.599998H19.378V9.6H19.178C18.6446 7.76 17.9446 6.18667 17.078 4.88C16.2246 3.56 15.1913 2.55333 13.978 1.86C12.778 1.16667 11.398 0.819999 9.83797 0.819999C8.22464 0.819999 7.00464 1.28 6.17797 2.2C5.36464 3.10666 4.95797 4.24667 4.95797 5.62C4.95797 6.59333 5.24464 7.42 5.81797 8.1C6.40464 8.78 7.1713 9.38667 8.11797 9.92C9.06464 10.44 10.1046 10.9467 11.238 11.44C12.3846 11.9333 13.5246 12.48 14.658 13.08C15.8046 13.6667 16.8513 14.3733 17.798 15.2C18.7446 16.0133 19.5046 17.0067 20.078 18.18C20.6646 19.34 20.958 20.7467 20.958 22.4C20.958 24.2667 20.518 25.8867 19.638 27.26C18.758 28.6333 17.558 29.7 16.038 30.46C14.5313 31.22 12.838 31.6 10.958 31.6ZM40.4342 31.4C39.5676 31.4 38.7876 31.2867 38.0942 31.06C37.4142 30.8333 36.8676 30.4667 36.4542 29.96C36.0542 29.44 35.8542 28.7533 35.8542 27.9V18.82C35.8542 17.86 35.7676 16.9 35.5942 15.94C35.4209 14.9667 35.0676 14.16 34.5342 13.52C34.0009 12.8667 33.2009 12.54 32.1342 12.54C31.4942 12.54 30.8076 12.62 30.0742 12.78C29.3409 12.94 28.6476 13.18 27.9942 13.5C27.3542 13.82 26.8276 14.2333 26.4142 14.74C26.0009 15.2467 25.7942 15.8533 25.7942 16.56H25.6342C25.6342 15.72 25.9476 15.0467 26.5742 14.54C27.2142 14.02 27.9476 13.76 28.7742 13.76C29.6542 13.76 30.4209 13.9933 31.0742 14.46C31.7276 14.9267 32.0542 15.6 32.0542 16.48C32.0542 17.4267 31.7209 18.1467 31.0542 18.64C30.3876 19.12 29.6276 19.36 28.7742 19.36C27.8676 19.36 27.1076 19.1133 26.4942 18.62C25.8942 18.1133 25.5942 17.4267 25.5942 16.56C25.5942 15.8133 25.8076 15.1733 26.2342 14.64C26.6742 14.0933 27.2609 13.6467 27.9942 13.3C28.7276 12.9533 29.5409 12.7 30.4342 12.54C31.3276 12.3667 32.2276 12.28 33.1342 12.28C35.1742 12.28 36.8009 12.5667 38.0142 13.14C39.2276 13.7 40.1009 14.4733 40.6342 15.46C41.1809 16.4467 41.4542 17.5667 41.4542 18.82V29.08C41.4542 29.52 41.5609 29.8933 41.7742 30.2C42.0009 30.5067 42.3742 30.66 42.8942 30.66C43.2676 30.66 43.7342 30.4867 44.2942 30.14C44.8542 29.78 45.3209 29.22 45.6942 28.46L45.8142 28.54C45.4142 29.46 44.7342 30.1667 43.7742 30.66C42.8142 31.1533 41.7009 31.4 40.4342 31.4ZM29.8942 31.4C28.1609 31.4 26.7742 30.96 25.7342 30.08C24.7076 29.1867 24.1942 27.98 24.1942 26.46C24.1942 24.6733 24.9609 23.3 26.4942 22.34C28.0409 21.38 30.2342 20.9 33.0742 20.9H37.7142V21.06H34.4342C33.4209 21.06 32.6076 21.3333 31.9942 21.88C31.3942 22.4133 30.9609 23.06 30.6942 23.82C30.4276 24.58 30.2942 25.2933 30.2942 25.96C30.2942 26.6 30.3609 27.2133 30.4942 27.8C30.6409 28.3733 30.8809 28.8467 31.2142 29.22C31.5476 29.5933 31.9942 29.78 32.5542 29.78C33.1542 29.78 33.7009 29.5667 34.1942 29.14C34.7009 28.7133 35.1009 28.06 35.3942 27.18C35.7009 26.2867 35.8542 25.1533 35.8542 23.78H35.9942C35.9942 25.3533 35.7676 26.7133 35.3142 27.86C34.8609 29.0067 34.1809 29.8867 33.2742 30.5C32.3809 31.1 31.2542 31.4 29.8942 31.4ZM68.7073 12.6V12.76H65.3873L57.8273 31.4H56.2873L48.6473 12.76H46.1873V12.6H57.8273V12.76H54.8273L59.7073 26.22L65.1673 12.76H61.3473V12.6H68.7073ZM75.6652 7.4C74.7052 7.4 73.8985 7.07333 73.2452 6.42C72.5918 5.76666 72.2652 4.96 72.2652 4C72.2652 3.04 72.5918 2.23333 73.2452 1.58C73.8985 0.926665 74.7052 0.599998 75.6652 0.599998C76.6252 0.599998 77.4318 0.926665 78.0852 1.58C78.7385 2.23333 79.0652 3.04 79.0652 4C79.0652 4.96 78.7385 5.76666 78.0852 6.42C77.4452 7.07333 76.6385 7.4 75.6652 7.4ZM78.4652 12.6V30.84H81.0652V31H70.2452V30.84H72.8652V12.76H70.2452V12.6H78.4652ZM87.1914 31.4C86.5247 31.4 85.9181 31.24 85.3714 30.92C84.8381 30.5867 84.4047 30.1467 84.0714 29.6C83.7514 29.0533 83.5914 28.4533 83.5914 27.8C83.5914 27.1467 83.7514 26.5467 84.0714 26C84.4047 25.44 84.8381 25 85.3714 24.68C85.9181 24.3467 86.5247 24.18 87.1914 24.18C87.8447 24.18 88.4447 24.3467 88.9914 24.68C89.5514 25 89.9914 25.44 90.3114 26C90.6314 26.5467 90.7914 27.1467 90.7914 27.8C90.7914 28.4533 90.6314 29.0533 90.3114 29.6C89.9914 30.1467 89.5514 30.5867 88.9914 30.92C88.4447 31.24 87.8447 31.4 87.1914 31.4Z" fill="#B5179E"/>
</svg>
