<svg width="74" height="26" viewBox="0 0 74 26" fill="none" xmlns="http://www.w3.org/2000/svg">
<path d="M9.32275 25.48C8.11742 25.48 7.07208 25.2827 6.18675 24.888C5.30142 24.4933 4.53875 23.9653 3.89875 23.304L0.986751 25.32H0.810751V17.8H1.01875C1.31742 18.7387 1.69075 19.6507 2.13875 20.536C2.59742 21.4213 3.14675 22.2213 3.78675 22.936C4.43742 23.6507 5.20008 24.2213 6.07475 24.648C6.96008 25.064 7.98942 25.272 9.16275 25.272C10.1868 25.272 11.0668 25.0693 11.8028 24.664C12.5388 24.2587 13.1041 23.6987 13.4988 22.984C13.8934 22.2587 14.0908 21.432 14.0908 20.504C14.0908 19.6293 13.8561 18.8987 13.3868 18.312C12.9281 17.7253 12.3148 17.224 11.5468 16.808C10.7788 16.3813 9.93075 15.976 9.00275 15.592C8.08542 15.208 7.16275 14.7973 6.23475 14.36C5.31742 13.912 4.47475 13.3733 3.70675 12.744C2.94942 12.1147 2.33608 11.3467 1.86675 10.44C1.39742 9.52267 1.16275 8.40267 1.16275 7.08C1.16275 5.74667 1.49342 4.60533 2.15475 3.656C2.82675 2.696 3.70142 1.96 4.77875 1.448C5.85608 0.935998 7.01875 0.679998 8.26675 0.679998C9.22675 0.679998 10.1068 0.834665 10.9068 1.144C11.7174 1.45333 12.4374 1.912 13.0668 2.52L15.8988 0.679998H16.0748V7.88H15.8668C15.4401 6.42933 14.8801 5.18133 14.1868 4.136C13.5041 3.09067 12.6828 2.29067 11.7228 1.736C10.7628 1.18133 9.66942 0.903999 8.44275 0.903999C7.15208 0.903999 6.17608 1.26667 5.51475 1.992C4.85342 2.71733 4.52275 3.624 4.52275 4.712C4.52275 5.49067 4.75208 6.152 5.21075 6.696C5.68008 7.24 6.29342 7.72 7.05075 8.136C7.80808 8.552 8.64008 8.96267 9.54675 9.368C10.4641 9.76267 11.3761 10.2 12.2828 10.68C13.2001 11.1493 14.0374 11.7093 14.7948 12.36C15.5521 13.0107 16.1601 13.8053 16.6188 14.744C17.0881 15.672 17.3228 16.7973 17.3228 18.12C17.3228 19.6133 16.9708 20.9093 16.2668 22.008C15.5628 23.1067 14.6028 23.96 13.3868 24.568C12.1814 25.176 10.8268 25.48 9.32275 25.48ZM32.933 25.32C32.2503 25.32 31.6317 25.2293 31.077 25.048C30.5223 24.8667 30.085 24.5733 29.765 24.168C29.445 23.752 29.285 23.1973 29.285 22.504V15.256C29.285 14.488 29.2157 13.72 29.077 12.952C28.9383 12.184 28.6557 11.5493 28.229 11.048C27.8023 10.536 27.1623 10.28 26.309 10.28C25.797 10.28 25.253 10.344 24.677 10.472C24.101 10.5893 23.557 10.776 23.045 11.032C22.533 11.288 22.1117 11.6133 21.781 12.008C21.461 12.4027 21.301 12.8827 21.301 13.448H21.093C21.093 12.776 21.3437 12.2373 21.845 11.832C22.357 11.416 22.9437 11.208 23.605 11.208C24.309 11.208 24.9223 11.3947 25.445 11.768C25.9677 12.1413 26.229 12.68 26.229 13.384C26.229 14.1413 25.9623 14.7173 25.429 15.112C24.8957 15.496 24.2877 15.688 23.605 15.688C22.8797 15.688 22.2717 15.4907 21.781 15.096C21.301 14.6907 21.061 14.1413 21.061 13.448C21.061 12.8507 21.237 12.3387 21.589 11.912C21.941 11.4747 22.405 11.1173 22.981 10.84C23.5677 10.5627 24.2183 10.36 24.933 10.232C25.6477 10.0933 26.3677 10.024 27.093 10.024C28.725 10.024 30.0263 10.2533 30.997 10.712C31.9783 11.16 32.6823 11.7787 33.109 12.568C33.5463 13.3573 33.765 14.2533 33.765 15.256V23.4C33.765 23.752 33.8503 24.056 34.021 24.312C34.1917 24.5573 34.485 24.68 34.901 24.68C35.1997 24.68 35.5677 24.5413 36.005 24.264C36.4423 23.9867 36.7997 23.5547 37.077 22.968L37.205 23.08C36.8957 23.7947 36.357 24.3493 35.589 24.744C34.8317 25.128 33.9463 25.32 32.933 25.32ZM24.501 25.32C23.1143 25.32 22.005 24.968 21.173 24.264C20.3517 23.5493 19.941 22.584 19.941 21.368C19.941 19.9387 20.5543 18.84 21.781 18.072C23.0183 17.2933 24.773 16.904 27.045 16.904H30.773V17.08H28.133C27.3223 17.08 26.6717 17.2933 26.181 17.72C25.701 18.1467 25.349 18.6587 25.125 19.256C24.9117 19.8533 24.805 20.4187 24.805 20.952C24.805 21.464 24.8637 21.9493 24.981 22.408C25.0983 22.8667 25.2903 23.2453 25.557 23.544C25.8237 23.832 26.181 23.976 26.629 23.976C27.0983 23.976 27.5357 23.8107 27.941 23.48C28.3463 23.1387 28.6717 22.616 28.917 21.912C29.1623 21.208 29.285 20.3067 29.285 19.208H29.429C29.429 20.4773 29.2423 21.5707 28.869 22.488C28.5063 23.3947 27.957 24.0933 27.221 24.584C26.4957 25.0747 25.589 25.32 24.501 25.32ZM55.5655 10.28V10.472H52.9575L46.9255 25.32H45.6455L39.5495 10.472H37.5655V10.28H46.8775V10.472H44.4935L48.3655 21.176L52.7175 10.472H49.6935V10.28H55.5655ZM61.1625 6.136C60.4052 6.136 59.7598 5.87467 59.2265 5.352C58.7038 4.81867 58.4425 4.17333 58.4425 3.416C58.4425 2.63733 58.7038 1.992 59.2265 1.48C59.7598 0.957333 60.4052 0.695999 61.1625 0.695999C61.9412 0.695999 62.5865 0.957333 63.0985 1.48C63.6212 1.992 63.8825 2.63733 63.8825 3.416C63.8825 4.17333 63.6212 4.81867 63.0985 5.352C62.5865 5.87467 61.9412 6.136 61.1625 6.136ZM63.4025 10.28V24.808H65.4985V25H56.8265V24.808H58.9225V10.472H56.8265V10.28H63.4025ZM70.4288 25.32C69.8954 25.32 69.4101 25.192 68.9728 24.936C68.5461 24.6693 68.1994 24.3173 67.9328 23.88C67.6768 23.4427 67.5488 22.9627 67.5488 22.44C67.5488 21.9173 67.6768 21.4373 67.9328 21C68.1994 20.552 68.5461 20.2 68.9728 19.944C69.4101 19.6773 69.8954 19.544 70.4288 19.544C70.9514 19.544 71.4314 19.6773 71.8688 19.944C72.3168 20.2 72.6688 20.552 72.9248 21C73.1808 21.4373 73.3088 21.9173 73.3088 22.44C73.3088 22.9627 73.1808 23.4427 72.9248 23.88C72.6688 24.3173 72.3168 24.6693 71.8688 24.936C71.4314 25.192 70.9514 25.32 70.4288 25.32Z" fill="#B5179E"/>
</svg>
