<svg width="32" height="32" viewBox="0 0 32 32" fill="none" xmlns="http://www.w3.org/2000/svg">
<path fill-rule="evenodd" clip-rule="evenodd" d="M16 11.8297C17.7334 11.8297 19.3292 12.4192 20.5977 13.4086C19.905 14.2383 19.4879 15.3062 19.4879 16.4714C19.4879 17.5348 19.8354 18.5172 20.4226 19.3115H11.5774C12.1647 18.5172 12.5121 17.5349 12.5121 16.4714C12.5121 15.3062 12.0951 14.2383 11.4024 13.4086C12.6709 12.4192 14.2666 11.8297 16 11.8297ZM7.72931 21.2647C11.0899 21.2647 13.9331 23.4803 14.8776 26.5305C15.0436 27.0664 14.9533 27.5996 14.6204 28.0512C14.2876 28.5027 13.8049 28.7465 13.2439 28.7465H2.21463C1.65363 28.7465 1.171 28.5027 0.838126 28.0512C0.505251 27.5996 0.415064 27.0664 0.581001 26.5305C1.52556 23.4804 4.36875 21.2647 7.72931 21.2647ZM24.2708 12.6887C22.1816 12.6887 20.4879 14.3823 20.4879 16.4715C20.4879 18.5607 22.1816 20.2543 24.2708 20.2543C26.3599 20.2543 28.0536 18.5607 28.0536 16.4715C28.0536 14.3823 26.3599 12.6887 24.2708 12.6887ZM7.72931 12.6887C5.64013 12.6887 3.9465 14.3823 3.9465 16.4715C3.9465 18.5607 5.64013 20.2543 7.72931 20.2543C9.8185 20.2543 11.5121 18.5607 11.5121 16.4715C11.5121 14.3823 9.8185 12.6887 7.72931 12.6887ZM24.2707 21.2647C27.6313 21.2647 30.4744 23.4803 31.4189 26.5305C31.5849 27.0664 31.4947 27.5996 31.1618 28.0512C30.8289 28.5027 30.3463 28.7465 29.7853 28.7465H18.7561C18.1951 28.7465 17.7124 28.5027 17.3796 28.0512C17.0467 27.5996 16.9565 27.0664 17.1224 26.5305C18.067 23.4804 20.9102 21.2647 24.2707 21.2647ZM16.0001 3.25366C18.0893 3.25366 19.7829 4.94729 19.7829 7.03647C19.7829 9.12566 18.0893 10.8193 16.0001 10.8193C13.9109 10.8193 12.2173 9.12566 12.2173 7.03647C12.2173 4.94729 13.9109 3.25366 16.0001 3.25366Z" fill="#B5179E"/>
</svg>
