<svg width="32" height="32" viewBox="0 0 32 32" fill="none" xmlns="http://www.w3.org/2000/svg">
<path d="M16 16.0001C15.2089 16.0001 14.4355 16.2347 13.7777 16.6742C13.1199 17.1137 12.6072 17.7384 12.3045 18.4693C12.0017 19.2003 11.9225 20.0045 12.0769 20.7804C12.2312 21.5564 12.6122 22.2691 13.1716 22.8285C13.731 23.3879 14.4437 23.7689 15.2196 23.9232C15.9956 24.0776 16.7998 23.9983 17.5307 23.6956C18.2616 23.3928 18.8864 22.8802 19.3259 22.2224C19.7654 21.5646 20 20.7912 20 20.0001C20 18.9392 19.5786 17.9218 18.8284 17.1717C18.0783 16.4215 17.0609 16.0001 16 16.0001ZM16 21.3334C15.7363 21.3334 15.4785 21.2552 15.2592 21.1087C15.04 20.9622 14.8691 20.754 14.7682 20.5103C14.6673 20.2667 14.6409 19.9986 14.6923 19.74C14.7437 19.4813 14.8707 19.2437 15.0572 19.0573C15.2437 18.8708 15.4812 18.7438 15.7399 18.6924C15.9985 18.6409 16.2666 18.6673 16.5103 18.7682C16.7539 18.8692 16.9621 19.0401 17.1086 19.2593C17.2551 19.4786 17.3333 19.7364 17.3333 20.0001C17.3333 20.3537 17.1929 20.6928 16.9428 20.9429C16.6928 21.1929 16.3536 21.3334 16 21.3334ZM15.0533 12.9467C15.1801 13.0681 15.3297 13.1633 15.4933 13.2267C15.6529 13.2973 15.8255 13.3337 16 13.3337C16.1745 13.3337 16.3471 13.2973 16.5067 13.2267C16.6703 13.1633 16.8199 13.0681 16.9467 12.9467L20 9.94675C20.2582 9.6886 20.4032 9.33849 20.4032 8.97341C20.4032 8.60834 20.2582 8.25822 20 8.00008C19.7419 7.74194 19.3917 7.59691 19.0267 7.59691C18.6616 7.59691 18.3115 7.74194 18.0533 8.00008L17.3333 8.78675V4.00008C17.3333 3.64646 17.1929 3.30732 16.9428 3.05727C16.6928 2.80722 16.3536 2.66675 16 2.66675C15.6464 2.66675 15.3073 2.80722 15.0572 3.05727C14.8072 3.30732 14.6667 3.64646 14.6667 4.00008V8.78675L13.9467 8.00008C13.6885 7.74194 13.3384 7.59691 12.9733 7.59691C12.6083 7.59691 12.2582 7.74194 12 8.00008C11.7419 8.25822 11.5968 8.60834 11.5968 8.97341C11.5968 9.33849 11.7419 9.6886 12 9.94675L15.0533 12.9467ZM25.3333 20.0001C25.3333 19.7364 25.2551 19.4786 25.1086 19.2593C24.9621 19.0401 24.7539 18.8692 24.5103 18.7682C24.2666 18.6673 23.9985 18.6409 23.7399 18.6924C23.4812 18.7438 23.2437 18.8708 23.0572 19.0573C22.8707 19.2437 22.7437 19.4813 22.6923 19.74C22.6409 19.9986 22.6673 20.2667 22.7682 20.5103C22.8691 20.754 23.04 20.9622 23.2593 21.1087C23.4785 21.2552 23.7363 21.3334 24 21.3334C24.3536 21.3334 24.6928 21.1929 24.9428 20.9429C25.1929 20.6928 25.3333 20.3537 25.3333 20.0001ZM26.6667 10.6667H22.6667C22.3131 10.6667 21.9739 10.8072 21.7239 11.0573C21.4738 11.3073 21.3333 11.6465 21.3333 12.0001C21.3333 12.3537 21.4738 12.6928 21.7239 12.9429C21.9739 13.1929 22.3131 13.3334 22.6667 13.3334H26.6667C27.0203 13.3334 27.3594 13.4739 27.6095 13.7239C27.8595 13.974 28 14.3131 28 14.6667V25.3334C28 25.687 27.8595 26.0262 27.6095 26.2762C27.3594 26.5263 27.0203 26.6667 26.6667 26.6667H5.33334C4.97972 26.6667 4.64058 26.5263 4.39053 26.2762C4.14049 26.0262 4.00001 25.687 4.00001 25.3334V14.6667C4.00001 14.3131 4.14049 13.974 4.39053 13.7239C4.64058 13.4739 4.97972 13.3334 5.33334 13.3334H9.33334C9.68697 13.3334 10.0261 13.1929 10.2762 12.9429C10.5262 12.6928 10.6667 12.3537 10.6667 12.0001C10.6667 11.6465 10.5262 11.3073 10.2762 11.0573C10.0261 10.8072 9.68697 10.6667 9.33334 10.6667H5.33334C4.27248 10.6667 3.25506 11.0882 2.50492 11.8383C1.75477 12.5885 1.33334 13.6059 1.33334 14.6667V25.3334C1.33334 26.3943 1.75477 27.4117 2.50492 28.1618C3.25506 28.912 4.27248 29.3334 5.33334 29.3334H26.6667C27.7275 29.3334 28.745 28.912 29.4951 28.1618C30.2453 27.4117 30.6667 26.3943 30.6667 25.3334V14.6667C30.6667 13.6059 30.2453 12.5885 29.4951 11.8383C28.745 11.0882 27.7275 10.6667 26.6667 10.6667ZM6.66668 20.0001C6.66668 20.2638 6.74488 20.5216 6.89138 20.7408C7.03789 20.9601 7.24613 21.131 7.48977 21.2319C7.7334 21.3328 8.00149 21.3592 8.26013 21.3078C8.51877 21.2563 8.75635 21.1294 8.94282 20.9429C9.12929 20.7564 9.25628 20.5188 9.30772 20.2602C9.35917 20.0016 9.33277 19.7335 9.23185 19.4898C9.13093 19.2462 8.96004 19.038 8.74077 18.8915C8.5215 18.7449 8.26372 18.6667 8.00001 18.6667C7.64639 18.6667 7.30725 18.8072 7.0572 19.0573C6.80715 19.3073 6.66668 19.6465 6.66668 20.0001Z" fill="#B5179E"/>
</svg>
